<svg width="44" height="44" viewBox="0 0 44 44" fill="none" xmlns="http://www.w3.org/2000/svg">
<rect width="44" height="44" rx="9" fill="#F2F2F2"/>
<g clip-path="url(#clip0_174_7539)">
<path d="M30.4117 30.9335H14.4258C13.7265 30.9337 13.0438 30.7175 12.4683 30.3138C11.8927 29.91 11.4517 29.3377 11.2037 28.673C10.9558 28.0083 10.9126 27.2827 11.0801 26.5924C11.2475 25.9022 11.6175 25.2801 12.141 24.8088L12.6148 24.3812C13.2084 23.846 13.6039 23.1204 13.7355 22.325L14.7127 16.3612C15.0131 14.4989 15.9558 12.8062 17.372 11.5862C18.7882 10.3662 20.5854 9.69873 22.4416 9.70328H22.4466C24.3031 9.69817 26.1007 10.3654 27.5172 11.5855C28.9337 12.8055 29.8765 14.4986 30.1767 16.3612L31.1477 22.2835C31.2817 23.0986 31.6933 23.8398 32.3105 24.3774L32.6631 24.6868C33.1965 25.161 33.576 25.7884 33.7516 26.4862C33.9273 27.1841 33.8908 27.9197 33.6471 28.5961C33.4033 29.2725 32.9636 29.8579 32.3861 30.2751C31.8085 30.6924 31.1202 30.922 30.4117 30.9335ZM22.4416 11.5897C21.0249 11.586 19.6531 12.0953 18.5721 13.0263C17.4911 13.9573 16.7716 15.2492 16.5423 16.6706L15.5651 22.6344C15.3639 23.8562 14.757 24.9712 13.8456 25.7935L13.3731 26.2211C13.1327 26.4389 12.9631 26.7257 12.8864 27.0436C12.8098 27.3614 12.8299 27.6955 12.9439 28.0015C13.058 28.3076 13.2607 28.5713 13.5253 28.7577C13.7899 28.9442 14.1038 29.0446 14.4258 29.0458H30.4117C30.8063 29.0471 31.1871 28.8986 31.4797 28.6295C31.7723 28.3604 31.9557 27.99 31.9939 27.5907C32.0306 27.3189 32.0006 27.042 31.9065 26.7848C31.8123 26.5276 31.6571 26.2981 31.4545 26.1168L31.102 25.8086C30.1543 24.9828 29.5224 23.8445 29.317 22.5928L28.3459 16.6694C28.1166 15.248 27.3971 13.956 26.3161 13.025C25.2351 12.094 23.8633 11.5847 22.4466 11.5885L22.4416 11.5897Z" fill="#0891C2"/>
<path d="M22.4231 35.0196C21.1932 35.0183 20.0141 34.521 19.1444 33.6368C18.2748 32.7527 17.7856 31.5539 17.7843 30.3035V29.9891C17.7843 29.7389 17.882 29.499 18.056 29.3221C18.23 29.1452 18.466 29.0458 18.7121 29.0458C18.9581 29.0458 19.1941 29.1452 19.3681 29.3221C19.5421 29.499 19.6398 29.7389 19.6398 29.9891V30.3035C19.6398 31.054 19.9331 31.7737 20.455 32.3044C20.977 32.8351 21.6849 33.1332 22.4231 33.1332C23.1613 33.1332 23.8692 32.8351 24.3912 32.3044C24.9132 31.7737 25.2064 31.054 25.2064 30.3035V29.9891C25.2064 29.7389 25.3041 29.499 25.4781 29.3221C25.6521 29.1452 25.8881 29.0458 26.1342 29.0458C26.3802 29.0458 26.6162 29.1452 26.7902 29.3221C26.9642 29.499 27.0619 29.7389 27.0619 29.9891V30.3035C27.0606 31.5539 26.5715 32.7527 25.7018 33.6368C24.8321 34.521 23.653 35.0183 22.4231 35.0196ZM22.4231 11.1245C22.1771 11.1245 21.9411 11.0251 21.7671 10.8482C21.5931 10.6713 21.4954 10.4314 21.4954 10.1812V8.92358C21.4954 8.67342 21.5931 8.4335 21.7671 8.25661C21.9411 8.07972 22.1771 7.98035 22.4231 7.98035C22.6692 7.98035 22.9052 8.07972 23.0791 8.25661C23.2531 8.4335 23.3509 8.67342 23.3509 8.92358V10.1812C23.3509 10.4314 23.2531 10.6713 23.0791 10.8482C22.9052 11.0251 22.6692 11.1245 22.4231 11.1245Z" fill="#0891C2"/>
</g>
<defs>
<clipPath id="clip0_174_7539">
<rect width="22.8462" height="27" fill="white" transform="translate(11 8)"/>
</clipPath>
</defs>
</svg>
