<svg width="44" height="44" viewBox="0 0 44 44" fill="none" xmlns="http://www.w3.org/2000/svg">
<rect width="44" height="44" rx="9" fill="#F2F2F2"/>
<g clip-path="url(#clip0_174_7533)">
<path d="M31.1517 33.9242H26.4865C25.7651 33.9242 25.0732 33.6376 24.5631 33.1275C24.053 32.6174 23.7665 31.9256 23.7665 31.2042V26.5979C23.7665 26.4619 23.7397 26.3272 23.6876 26.2015C23.6356 26.0759 23.5593 25.9617 23.4631 25.8655C23.3669 25.7693 23.2527 25.693 23.1271 25.641C23.0014 25.5889 22.8667 25.5621 22.7307 25.5621H21.1644C21.0283 25.5621 20.8937 25.5889 20.768 25.641C20.6423 25.693 20.5281 25.7693 20.432 25.8655C20.3358 25.9617 20.2595 26.0759 20.2074 26.2015C20.1554 26.3272 20.1286 26.4619 20.1286 26.5979V31.2042C20.1286 31.5614 20.0582 31.9151 19.9215 32.2451C19.7848 32.5751 19.5845 32.875 19.3319 33.1275C19.0793 33.3801 18.7795 33.5805 18.4495 33.7172C18.1195 33.8539 17.7658 33.9242 17.4086 33.9242H12.7433C12.0219 33.9242 11.3301 33.6376 10.82 33.1275C10.3099 32.6174 10.0233 31.9256 10.0233 31.2042V21.8568C10.0239 21.1871 10.2905 20.5449 10.7644 20.0716L20.0275 10.8084C20.2794 10.5558 20.5787 10.3554 20.9081 10.2187C21.2376 10.082 21.5908 10.0116 21.9475 10.0116C22.3042 10.0116 22.6574 10.082 22.9869 10.2187C23.3164 10.3554 23.6156 10.5558 23.8675 10.8084L33.0717 20.0126C33.3253 20.264 33.5265 20.5631 33.6638 20.8926C33.8011 21.2222 33.8718 21.5756 33.8717 21.9326V31.1958C33.8728 31.5537 33.8033 31.9083 33.6671 32.2393C33.5309 32.5703 33.3307 32.8711 33.0781 33.1246C32.8254 33.378 32.5251 33.5791 32.1946 33.7164C31.864 33.8536 31.5096 33.9242 31.1517 33.9242ZM21.1644 23.8779H22.7307C23.4521 23.8779 24.1439 24.1645 24.654 24.6746C25.1641 25.1847 25.4507 25.8765 25.4507 26.5979V31.2042C25.4507 31.4789 25.5598 31.7424 25.7541 31.9366C25.9483 32.1309 26.2118 32.24 26.4865 32.24H31.1517C31.4264 32.24 31.6899 32.1309 31.8842 31.9366C32.0784 31.7424 32.1875 31.4789 32.1875 31.2042V21.9411C32.1849 21.6668 32.0763 21.4043 31.8844 21.2084L22.6802 11.9958C22.584 11.8995 22.4698 11.8232 22.344 11.7711C22.2183 11.719 22.0836 11.6922 21.9475 11.6922C21.8115 11.6922 21.6767 11.719 21.551 11.7711C21.4253 11.8232 21.3111 11.8995 21.2149 11.9958L11.9517 21.259C11.8737 21.3376 11.8119 21.431 11.77 21.5336C11.7281 21.6362 11.7069 21.746 11.7075 21.8568V31.2042C11.7075 31.4789 11.8167 31.7424 12.0109 31.9366C12.2051 32.1309 12.4686 32.24 12.7433 32.24H17.4086C17.6833 32.24 17.9467 32.1309 18.141 31.9366C18.3352 31.7424 18.4444 31.4789 18.4444 31.2042V26.5979C18.4444 25.8765 18.7309 25.1847 19.241 24.6746C19.7511 24.1645 20.443 23.8779 21.1644 23.8779Z" fill="#0891C2"/>
</g>
<defs>
<clipPath id="clip0_174_7533">
<rect width="23.8947" height="24" fill="white" transform="translate(10 10)"/>
</clipPath>
</defs>
</svg>
