<svg width="71" height="71" viewBox="0 0 71 71" fill="none" xmlns="http://www.w3.org/2000/svg">
<path d="M52.1406 62.6797H18.8594C17.7096 62.6797 16.7793 61.7493 16.7793 60.5996V35.5C16.7793 25.1768 25.1768 16.7793 35.5 16.7793C45.8562 16.7793 54.2207 25.1968 54.2207 35.5V60.5996C54.2207 61.7493 53.2904 62.6797 52.1406 62.6797Z" fill="#FF6A4D"/>
<path d="M52.1406 62.6797C53.2904 62.6797 54.2207 61.7493 54.2207 60.5996V35.5C54.2207 25.1968 45.8562 16.7793 35.5 16.7793V62.6797H52.1406Z" fill="#F23030"/>
<path d="M56.3008 68.9199H14.6992C13.5495 68.9199 12.6191 67.9896 12.6191 66.8398V60.5996C12.6191 59.4499 13.5495 58.5195 14.6992 58.5195H56.3008C57.4505 58.5195 58.3809 59.4499 58.3809 60.5996V66.8398C58.3809 67.9896 57.4505 68.9199 56.3008 68.9199Z" fill="#5B5B8C"/>
<path d="M56.3008 58.5195H35.5V68.9199H56.3008C57.4505 68.9199 58.3809 67.9896 58.3809 66.8398V60.5996C58.3809 59.4499 57.4505 58.5195 56.3008 58.5195Z" fill="#443D66"/>
<path d="M35.5 50.0605C36.6488 50.0605 37.5801 49.1293 37.5801 47.9805C37.5801 46.8317 36.6488 45.9004 35.5 45.9004C34.3512 45.9004 33.4199 46.8317 33.4199 47.9805C33.4199 49.1293 34.3512 50.0605 35.5 50.0605Z" fill="#FFDF40"/>
<path d="M35.5 41.7402C34.3503 41.7402 33.4199 40.8099 33.4199 39.6602V31.3398C33.4199 30.1901 34.3503 29.2598 35.5 29.2598C36.6497 29.2598 37.5801 30.1901 37.5801 31.3398V39.6602C37.5801 40.8099 36.6497 41.7402 35.5 41.7402ZM6.37891 37.5801H2.08008C0.93035 37.5801 0 36.6497 0 35.5C0 34.3503 0.93035 33.4199 2.08008 33.4199H6.37891C7.52864 33.4199 8.45898 34.3503 8.45898 35.5C8.45898 36.6497 7.52864 37.5801 6.37891 37.5801Z" fill="#FFDF40"/>
<path d="M68.9199 37.5801H64.6211C63.4714 37.5801 62.541 36.6497 62.541 35.5C62.541 34.3503 63.4714 33.4199 64.6211 33.4199H68.9199C70.0697 33.4199 71 34.3503 71 35.5C71 36.6497 70.0697 37.5801 68.9199 37.5801Z" fill="#FFBE40"/>
<path d="M35.5002 8.45898C34.3505 8.45898 33.4201 7.52864 33.4201 6.37891V2.08008C33.4201 0.93035 34.3505 0 35.5002 0C36.6499 0 37.5803 0.93035 37.5803 2.08008V6.37891C37.5803 7.52864 36.6499 8.45898 35.5002 8.45898ZM13.436 16.3791L10.4946 13.4377C9.68213 12.6252 9.68213 11.3088 10.4946 10.4964C11.3071 9.68387 12.6235 9.68387 13.436 10.4964L16.3774 13.4377C17.1898 14.2502 17.1898 15.5666 16.3774 16.3791C15.5647 17.1916 14.2485 17.1917 13.436 16.3791Z" fill="#FFDF40"/>
<path d="M54.623 16.3791C53.8106 15.5666 53.8106 14.2502 54.623 13.4377L57.5644 10.4963C58.3769 9.68384 59.6933 9.68384 60.5058 10.4963C61.3182 11.3088 61.3182 12.6252 60.5058 13.4377L57.5644 16.3791C56.7519 17.1915 55.4356 17.1917 54.623 16.3791Z" fill="#FFBE40"/>
<path d="M64.6211 71H6.37891C5.22918 71 4.29883 70.0697 4.29883 68.9199C4.29883 67.7702 5.22918 66.8398 6.37891 66.8398H64.6211C65.7708 66.8398 66.7012 67.7702 66.7012 68.9199C66.7012 70.0697 65.7708 71 64.6211 71Z" fill="#443D66"/>
<path d="M37.5801 6.37891V2.08008C37.5801 0.93035 36.6497 0 35.5 0V8.45898C36.6497 8.45898 37.5801 7.52864 37.5801 6.37891Z" fill="#FFBE40"/>
<path d="M64.6211 66.8398H35.5V71H64.6211C65.7708 71 66.7012 70.0697 66.7012 68.9199C66.7012 67.7702 65.7708 66.8398 64.6211 66.8398Z" fill="#322D59"/>
<path d="M37.5801 47.9805C37.5801 46.8314 36.6488 45.9004 35.5 45.9004V50.0605C36.6488 50.0605 37.5801 49.1292 37.5801 47.9805ZM37.5801 39.6602V31.3398C37.5801 30.1901 36.6497 29.2598 35.5 29.2598V41.7402C36.6497 41.7402 37.5801 40.8099 37.5801 39.6602Z" fill="#FFBE40"/>
</svg>
