<svg width="14" height="13" viewBox="0 0 14 13" fill="none" xmlns="http://www.w3.org/2000/svg">
<g clip-path="url(#clip0_174_5826)">
<path d="M10.6663 11.0126H3.33306C2.8843 11.0128 2.45397 11.1911 2.13665 11.5084C1.81933 11.8257 1.64099 12.2561 1.64083 12.7048H12.3586C12.3586 12.4826 12.3149 12.2625 12.2298 12.0572C12.1448 11.8519 12.0202 11.6653 11.863 11.5082C11.7059 11.351 11.5193 11.2264 11.314 11.1413C11.1087 11.0563 10.8886 11.0126 10.6663 11.0126ZM7 3.11554C5.02529 3.11554 3.61554 4.52559 3.61554 6.59672V10.4229H10.3845V6.59672C10.3845 4.52559 8.97559 3.11554 7 3.11554ZM9.25748 7.35894C9.17928 7.35894 9.10428 7.32788 9.04898 7.27258C8.99369 7.21728 8.96262 7.14228 8.96262 7.06408C8.96262 6.0061 8.44307 5.03511 7.75367 4.80571C7.71689 4.79347 7.68287 4.77411 7.65357 4.74873C7.62427 4.72334 7.60025 4.69244 7.58289 4.65777C7.56553 4.62311 7.55517 4.58537 7.5524 4.5467C7.54962 4.50803 7.55449 4.46919 7.56673 4.43241C7.57897 4.39562 7.59833 4.36161 7.62371 4.3323C7.64909 4.303 7.68 4.27898 7.71466 4.26162C7.74933 4.24426 7.78707 4.2339 7.82574 4.23113C7.86441 4.22836 7.90324 4.23323 7.94003 4.24546C8.87416 4.55714 9.55235 5.74249 9.55235 7.06408C9.55235 7.14228 9.52128 7.21728 9.46599 7.27258C9.41069 7.32788 9.33569 7.35894 9.25748 7.35894ZM2.48709 6.79487H0.794865C0.716662 6.79487 0.641662 6.7638 0.586364 6.7085C0.531066 6.6532 0.5 6.5782 0.5 6.5C0.5 6.4218 0.531066 6.3468 0.586364 6.2915C0.641662 6.2362 0.716662 6.20514 0.794865 6.20514H2.48709C2.5653 6.20514 2.6403 6.2362 2.69559 6.2915C2.75089 6.3468 2.78196 6.4218 2.78196 6.5C2.78196 6.5782 2.75089 6.6532 2.69559 6.7085C2.6403 6.7638 2.5653 6.79487 2.48709 6.79487ZM3.59166 3.53071C3.55293 3.53075 3.51458 3.52314 3.4788 3.50831C3.44303 3.49349 3.41053 3.47174 3.38319 3.44432L2.25504 2.31587C2.20132 2.26026 2.1716 2.18577 2.17227 2.10846C2.17295 2.03115 2.20396 1.95719 2.25863 1.90252C2.3133 1.84785 2.38725 1.81684 2.46457 1.81617C2.54188 1.8155 2.61636 1.84522 2.67197 1.89893L3.80013 3.02738C3.84135 3.06861 3.86942 3.12115 3.8808 3.17834C3.89217 3.23553 3.88633 3.29481 3.86402 3.34868C3.84171 3.40255 3.80392 3.4486 3.75544 3.481C3.70696 3.5134 3.64997 3.5307 3.59166 3.53071ZM7 2.28196C6.9218 2.28196 6.8468 2.25089 6.7915 2.1956C6.7362 2.1403 6.70514 2.0653 6.70514 1.98709V0.294865C6.70514 0.216662 6.7362 0.141662 6.7915 0.0863639C6.8468 0.031066 6.9218 0 7 0C7.0782 0 7.1532 0.031066 7.2085 0.0863639C7.2638 0.141662 7.29486 0.216662 7.29486 0.294865V1.98709C7.29486 2.0653 7.2638 2.1403 7.2085 2.1956C7.1532 2.25089 7.0782 2.28196 7 2.28196ZM10.472 3.46673C10.4137 3.46671 10.3567 3.44941 10.3082 3.41701C10.2598 3.38461 10.222 3.33856 10.1997 3.28469C10.1774 3.23082 10.1715 3.17154 10.1829 3.11435C10.1943 3.05716 10.2223 3.00463 10.2636 2.96339L11.3917 1.83524C11.4477 1.7835 11.5216 1.75544 11.5978 1.75694C11.674 1.75843 11.7467 1.78936 11.8006 1.84326C11.8546 1.89715 11.8856 1.96982 11.8871 2.04605C11.8887 2.12227 11.8606 2.19614 11.809 2.25218L10.6805 3.38033C10.6532 3.40775 10.6207 3.4295 10.5849 3.44433C10.5491 3.45915 10.5108 3.46677 10.472 3.46673ZM13.2051 6.79487H11.5129C11.4347 6.79487 11.3597 6.7638 11.3044 6.7085C11.2491 6.6532 11.218 6.5782 11.218 6.5C11.218 6.4218 11.2491 6.3468 11.3044 6.2915C11.3597 6.2362 11.4347 6.20514 11.5129 6.20514H13.2051C13.2833 6.20514 13.3583 6.2362 13.4136 6.2915C13.4689 6.3468 13.5 6.4218 13.5 6.5C13.5 6.5782 13.4689 6.6532 13.4136 6.7085C13.3583 6.7638 13.2833 6.79487 13.2051 6.79487Z" fill="white"/>
</g>
<defs>
<clipPath id="clip0_174_5826">
<rect width="13" height="13" fill="white" transform="translate(0.5)"/>
</clipPath>
</defs>
</svg>
