<svg width="40" height="40" viewBox="0 0 40 40" fill="none" xmlns="http://www.w3.org/2000/svg">
<rect x="0.5" y="0.5" width="39" height="39" rx="19.5" fill="#EB5757" stroke="#F2F2F2"/>
<g clip-path="url(#clip0_174_7688)">
<path d="M18.7171 27.2367H13.5855C12.5822 27.2367 11.62 26.8382 10.9106 26.1287C10.2012 25.4193 9.80261 24.4571 9.80261 23.4538C9.80261 22.4505 10.2012 21.4883 10.9106 20.7789C11.62 20.0695 12.5822 19.6709 13.5855 19.6709H14.4145C14.5017 19.6709 14.5854 19.7056 14.6471 19.7673C14.7087 19.829 14.7434 19.9126 14.7434 19.9999C14.7434 20.0871 14.7087 20.1708 14.6471 20.2325C14.5854 20.2942 14.5017 20.3288 14.4145 20.3288H13.5855C12.7567 20.3288 11.9618 20.6581 11.3758 21.2441C10.7897 21.8302 10.4605 22.625 10.4605 23.4538C10.4605 24.2826 10.7897 25.0775 11.3758 25.6635C11.9618 26.2496 12.7567 26.5788 13.5855 26.5788H18.7171C18.8043 26.5788 18.888 26.6135 18.9497 26.6752C19.0114 26.7369 19.046 26.8205 19.046 26.9078C19.046 26.995 19.0114 27.0787 18.9497 27.1404C18.888 27.2021 18.8043 27.2367 18.7171 27.2367ZM26.25 20.3288H25.5855C25.4983 20.3288 25.4146 20.2942 25.3529 20.2325C25.2912 20.1708 25.2566 20.0871 25.2566 19.9999C25.2566 19.9126 25.2912 19.829 25.3529 19.7673C25.4146 19.7056 25.4983 19.6709 25.5855 19.6709H26.25C27.1224 19.6709 27.9591 19.3244 28.576 18.7075C29.1929 18.0906 29.5395 17.2539 29.5395 16.3815C29.5395 15.509 29.1929 14.6723 28.576 14.0554C27.9591 13.4385 27.1224 13.092 26.25 13.092H23.8454C23.7581 13.092 23.6745 13.0573 23.6128 12.9956C23.5511 12.9339 23.5164 12.8503 23.5164 12.763C23.5164 12.6758 23.5511 12.5921 23.6128 12.5304C23.6745 12.4687 23.7581 12.4341 23.8454 12.4341H26.25C27.2969 12.4341 28.3009 12.85 29.0412 13.5902C29.7815 14.3305 30.1973 15.3345 30.1973 16.3815C30.1973 17.4284 29.7815 18.4324 29.0412 19.1727C28.3009 19.9129 27.2969 20.3288 26.25 20.3288ZM26.5789 27.2367H21.2829C21.1956 27.2367 21.112 27.2021 21.0503 27.1404C20.9886 27.0787 20.9539 26.995 20.9539 26.9078C20.9539 26.8205 20.9886 26.7369 21.0503 26.6752C21.112 26.6135 21.1956 26.5788 21.2829 26.5788H26.5789C26.6662 26.5788 26.7498 26.6135 26.8115 26.6752C26.8732 26.7369 26.9079 26.8205 26.9079 26.9078C26.9079 26.995 26.8732 27.0787 26.8115 27.1404C26.7498 27.2021 26.6662 27.2367 26.5789 27.2367ZM16.1546 13.092H12.7631C12.6759 13.092 12.5922 13.0573 12.5305 12.9956C12.4688 12.9339 12.4342 12.8503 12.4342 12.763C12.4342 12.6758 12.4688 12.5921 12.5305 12.5304C12.5922 12.4687 12.6759 12.4341 12.7631 12.4341H16.1546C16.2418 12.4341 16.3255 12.4687 16.3872 12.5304C16.4489 12.5921 16.4835 12.6758 16.4835 12.763C16.4835 12.8503 16.4489 12.9339 16.3872 12.9956C16.3255 13.0573 16.2418 13.092 16.1546 13.092Z" fill="white"/>
<path d="M19.9999 28.8815C19.9513 28.8815 19.9033 28.8707 19.8593 28.85C19.8154 28.8292 19.7765 28.799 19.7457 28.7614C19.4888 28.4486 13.4509 21.0565 13.4509 17.5877C13.4682 15.8622 14.1658 14.2132 15.3921 12.9991C16.6184 11.785 18.2743 11.104 19.9999 11.104C21.7256 11.104 23.3815 11.785 24.6078 12.9991C25.8341 14.2132 26.5317 15.8622 26.549 17.5877C26.549 21.0565 20.5111 28.4486 20.2542 28.7614C20.2233 28.799 20.1845 28.8292 20.1406 28.85C20.0966 28.8707 20.0486 28.8815 19.9999 28.8815ZM19.9999 11.7762C18.4486 11.7675 16.9572 12.3745 15.8528 13.4639C14.7485 14.5534 14.1213 16.0364 14.1088 17.5877C14.1088 20.44 18.8394 26.568 19.9999 28.0272C21.1605 26.5673 25.8911 20.44 25.8911 17.5877C25.8786 16.0364 25.2514 14.5534 24.147 13.4639C23.0427 12.3745 21.5512 11.7675 19.9999 11.7762Z" fill="white"/>
<path d="M20 20.6579C19.4144 20.6579 18.8421 20.4843 18.3552 20.1589C17.8683 19.8336 17.4889 19.3713 17.2648 18.8303C17.0407 18.2893 16.9821 17.6941 17.0963 17.1198C17.2106 16.5455 17.4925 16.018 17.9066 15.6039C18.3206 15.1899 18.8481 14.9079 19.4224 14.7937C19.9967 14.6795 20.592 14.7381 21.1329 14.9622C21.6739 15.1863 22.1363 15.5657 22.4616 16.0526C22.7869 16.5394 22.9605 17.1118 22.9605 17.6974C22.9596 18.4823 22.6474 19.2348 22.0924 19.7898C21.5374 20.3448 20.7849 20.657 20 20.6579ZM20 15.3947C19.5446 15.3947 19.0994 15.5298 18.7207 15.7828C18.342 16.0358 18.0469 16.3954 17.8726 16.8162C17.6983 17.2369 17.6527 17.6999 17.7416 18.1466C17.8304 18.5932 18.0497 19.0035 18.3718 19.3256C18.6938 19.6476 19.1041 19.8669 19.5508 19.9557C19.9974 20.0446 20.4604 19.999 20.8812 19.8247C21.3019 19.6504 21.6615 19.3553 21.9146 18.9766C22.1676 18.598 22.3026 18.1528 22.3026 17.6974C22.3019 17.0869 22.0591 16.5016 21.6274 16.0699C21.1957 15.6382 20.6105 15.3954 20 15.3947ZM28.2237 28.8816C27.8333 28.8816 27.4517 28.7658 27.1271 28.5489C26.8026 28.3321 26.5496 28.0238 26.4002 27.6632C26.2508 27.3025 26.2118 26.9057 26.2879 26.5228C26.3641 26.14 26.552 25.7883 26.8281 25.5123C27.1041 25.2363 27.4558 25.0483 27.8386 24.9721C28.2215 24.896 28.6183 24.9351 28.979 25.0844C29.3396 25.2338 29.6479 25.4868 29.8647 25.8114C30.0816 26.1359 30.1974 26.5175 30.1974 26.9079C30.1968 27.4312 29.9887 27.9329 29.6187 28.3029C29.2487 28.6729 28.747 28.881 28.2237 28.8816ZM28.2237 25.5921C27.9634 25.5921 27.709 25.6693 27.4927 25.8138C27.2763 25.9584 27.1076 26.1639 27.008 26.4044C26.9084 26.6448 26.8824 26.9093 26.9332 27.1646C26.9839 27.4198 27.1092 27.6543 27.2933 27.8383C27.4773 28.0223 27.7117 28.1476 27.967 28.1984C28.2222 28.2492 28.4868 28.2231 28.7272 28.1235C28.9676 28.0239 29.1731 27.8553 29.3177 27.6389C29.4623 27.4225 29.5395 27.1681 29.5395 26.9079C29.5395 26.5589 29.4008 26.2242 29.1541 25.9775C28.9073 25.7307 28.5726 25.5921 28.2237 25.5921ZM11.4474 14.4079C11.1221 14.4079 10.8041 14.3114 10.5336 14.1307C10.2631 13.95 10.0523 13.6931 9.92781 13.3926C9.80332 13.092 9.77075 12.7613 9.83422 12.4423C9.89768 12.1232 10.0543 11.8302 10.2843 11.6001C10.5144 11.3701 10.8074 11.2135 11.1265 11.15C11.4455 11.0865 11.7762 11.1191 12.0768 11.2436C12.3773 11.3681 12.6342 11.5789 12.8149 11.8494C12.9956 12.1199 13.0921 12.4378 13.0921 12.7631C13.0916 13.1992 12.9181 13.6172 12.6098 13.9256C12.3014 14.2339 11.8834 14.4074 11.4474 14.4079ZM11.4474 11.7763C11.2522 11.7763 11.0614 11.8342 10.8991 11.9426C10.7368 12.0511 10.6103 12.2052 10.5356 12.3855C10.4609 12.5658 10.4414 12.7642 10.4795 12.9557C10.5175 13.1471 10.6115 13.3229 10.7495 13.4609C10.8876 13.599 11.0634 13.6929 11.2548 13.731C11.4463 13.7691 11.6447 13.7496 11.825 13.6749C12.0053 13.6002 12.1594 13.4737 12.2679 13.3114C12.3763 13.1491 12.4342 12.9583 12.4342 12.7631C12.4342 12.5014 12.3302 12.2504 12.1452 12.0653C11.9601 11.8803 11.7091 11.7763 11.4474 11.7763Z" fill="white"/>
</g>
<defs>
<clipPath id="clip0_174_7688">
<rect width="21.0526" height="21.0526" fill="white" transform="translate(9.47363 9.47363)"/>
</clipPath>
</defs>
</svg>
