<svg width="26" height="26" viewBox="0 0 26 26" fill="none" xmlns="http://www.w3.org/2000/svg">
<g clip-path="url(#clip0_174_7339)">
<path d="M18.1919 12.9999C18.1919 15.8716 15.8638 18.1998 12.992 18.1998C10.1202 18.1998 7.7923 15.8716 7.7923 12.9999C7.7923 10.1281 10.1202 7.80017 12.992 7.80017C15.8638 7.80017 18.1919 10.1281 18.1919 12.9999Z" fill="#0891C2"/>
<path d="M25.2201 12.2199H23.4815C23.0907 7.02772 18.9643 2.90062 13.7722 2.50929V0.779965C13.7722 0.349156 13.4228 0 12.9922 0C12.5614 0 12.2122 0.349156 12.2122 0.779965V2.50929C7.0198 2.90062 2.89318 7.02772 2.50228 12.2199H0.780025C0.349156 12.2199 0 12.5691 0 12.9998C0 13.4306 0.349156 13.7798 0.779965 13.7798H2.50235C2.89318 18.9719 7.01986 23.099 12.2119 23.4903V25.2201C12.2119 25.6509 12.5611 26.0001 12.9919 26.0001C13.4225 26.0001 13.7717 25.6509 13.7717 25.2201V23.4903C18.964 23.0993 23.0907 18.9722 23.4815 13.7798H25.2201C25.6509 13.7798 26.0001 13.4306 26.0001 12.9998C26.0001 12.5692 25.6509 12.2199 25.2201 12.2199ZM12.992 21.9694C8.03839 21.9691 4.02291 17.9531 4.02291 12.9996C4.02309 8.04576 8.03912 4.03028 12.9927 4.03028C17.9465 4.03028 21.9622 8.04625 21.9622 12.9998C21.9562 17.9515 17.9436 21.9639 12.992 21.9694Z" fill="#0891C2"/>
</g>
<defs>
<clipPath id="clip0_174_7339">
<rect width="26" height="26" fill="white"/>
</clipPath>
</defs>
</svg>
