<svg width="20" height="18" viewBox="0 0 20 18" fill="none" xmlns="http://www.w3.org/2000/svg">
<path d="M0.999253 11.0896C1.22425 11.0896 1.447 10.9891 1.594 10.7971L1.92025 10.3733C2.16555 11.8221 2.79599 13.1783 3.74552 14.2998C4.69504 15.4213 5.92871 16.2667 7.31725 16.7476C9.03435 17.3464 10.902 17.3564 12.6254 16.7759C14.3488 16.1955 15.8298 15.0577 16.8348 13.5421C16.9447 13.3762 16.9841 13.1734 16.9446 12.9784C16.905 12.7834 16.7895 12.6121 16.6236 12.5022C16.4577 12.3923 16.255 12.3528 16.06 12.3924C15.865 12.432 15.6937 12.5474 15.5838 12.7133C14.7629 13.9512 13.5531 14.8804 12.1455 15.3544C10.7378 15.8283 9.21242 15.82 7.81 15.3308C6.65395 14.9301 5.62993 14.22 4.84934 13.2778C4.06875 12.3357 3.56149 11.1975 3.38275 9.98706L4.02475 10.4813C4.18239 10.6026 4.38177 10.6564 4.57904 10.6307C4.7763 10.6051 4.95529 10.5021 5.07663 10.3444C5.19796 10.1868 5.25171 9.98741 5.22604 9.79015C5.20037 9.59288 5.09739 9.41389 4.93975 9.29256L3.1615 7.92381C2.78875 7.63656 2.2585 7.47531 1.921 7.91556L0.406003 9.88281C0.320527 9.99366 0.267817 10.1263 0.253847 10.2655C0.239878 10.4048 0.265208 10.5452 0.326966 10.6709C0.388725 10.7965 0.484441 10.9023 0.603265 10.9763C0.722089 11.0503 0.859269 11.0895 0.999253 11.0896ZM3.37675 5.49831C3.721 5.72706 4.18675 5.63256 4.417 5.28756C5.23834 4.05021 6.4481 3.12137 7.8556 2.64745C9.26309 2.17354 10.7883 2.18149 12.1908 2.67006C13.3468 3.07076 14.3708 3.78083 15.1514 4.72302C15.932 5.6652 16.4393 6.8034 16.618 8.01381L15.976 7.51956C15.8979 7.45948 15.8088 7.41536 15.7137 7.38972C15.6186 7.36409 15.5194 7.35743 15.4217 7.37014C15.324 7.38285 15.2298 7.41468 15.1444 7.4638C15.0591 7.51292 14.9842 7.57838 14.9241 7.65643C14.864 7.73449 14.8199 7.82361 14.7943 7.91872C14.7687 8.01382 14.762 8.11304 14.7747 8.21072C14.7874 8.30839 14.8192 8.40261 14.8684 8.48799C14.9175 8.57336 14.9829 8.64823 15.061 8.70831L16.8393 10.0771C17.2188 10.3688 17.737 10.5323 18.0798 10.0853L19.5948 8.11806C19.6548 8.04005 19.6989 7.95099 19.7245 7.85595C19.7501 7.76091 19.7567 7.66175 19.744 7.56415C19.7313 7.46654 19.6995 7.37239 19.6504 7.28708C19.6013 7.20177 19.5359 7.12696 19.4579 7.06693C19.3799 7.0069 19.2908 6.96282 19.1958 6.93721C19.1007 6.9116 19.0016 6.90496 18.904 6.91767C18.8064 6.93038 18.7122 6.9622 18.6269 7.01129C18.5416 7.06039 18.4668 7.1258 18.4068 7.20381L18.0805 7.62756C17.8352 6.17873 17.2048 4.82254 16.2552 3.70107C15.3057 2.57961 14.072 1.73416 12.6835 1.25331C10.9664 0.65494 9.09906 0.645112 7.37579 1.22537C5.65253 1.80563 4.17142 2.94297 3.166 4.45806C3.05627 4.62403 3.01683 4.82674 3.05634 5.02175C3.09584 5.21676 3.21107 5.38814 3.37675 5.49831Z" fill="#0891C2"/>
</svg>
