<svg width="18" height="20" viewBox="0 0 18 20" fill="none" xmlns="http://www.w3.org/2000/svg">
<path d="M14.5664 12.8203C13.4664 12.8203 12.4972 13.3614 11.8883 14.1843L6.62463 11.489C6.71202 11.1911 6.77344 10.8824 6.77344 10.5566C6.77344 10.1148 6.68285 9.69478 6.52636 9.30843L12.0351 5.99352C12.6481 6.713 13.5492 7.17969 14.5664 7.17969C16.4081 7.17969 17.9062 5.68154 17.9062 3.83984C17.9062 1.99814 16.4081 0.5 14.5664 0.5C12.7247 0.5 11.2266 1.99814 11.2266 3.83984C11.2266 4.26426 11.314 4.66686 11.4589 5.04063L5.93384 8.36526C5.32131 7.66716 4.43321 7.2168 3.43359 7.2168C1.59189 7.2168 0.09375 8.71494 0.09375 10.5566C0.09375 12.3983 1.59189 13.8965 3.43359 13.8965C4.5517 13.8965 5.53736 13.3395 6.14388 12.4935L11.3903 15.1801C11.2936 15.492 11.2266 15.8169 11.2266 16.1602C11.2266 18.0019 12.7247 19.5 14.5664 19.5C16.4081 19.5 17.9062 18.0019 17.9062 16.1602C17.9062 14.3185 16.4081 12.8203 14.5664 12.8203Z" fill="white"/>
</svg>
