<svg width="44" height="45" viewBox="0 0 44 45" fill="none" xmlns="http://www.w3.org/2000/svg">
<g id="Frame" clip-path="url(#clip0_148_3553)">
<g id="Group">
<path id="Vector" d="M34.1482 38.2455H24.8848V28.8851H27.9462C28.7225 28.8851 29.1813 28.0029 28.7225 27.3677L22.7675 19.1277C22.3882 18.5984 21.603 18.5984 21.2236 19.1277L15.2686 27.3677C14.8099 28.0029 15.2598 28.8851 16.045 28.8851H19.1063V38.2455H8.73139C4.09973 37.9896 0.412048 33.6579 0.412048 28.9645C0.412048 25.7268 2.16767 22.9036 4.77022 21.3774C4.53202 20.7334 4.40851 20.0453 4.40851 19.3218C4.40851 16.0135 7.08164 13.3404 10.39 13.3404C11.1046 13.3404 11.7927 13.4639 12.4367 13.7021C14.3511 9.64387 18.4799 6.82959 23.2792 6.82959C29.49 6.83841 34.6069 11.5936 35.1892 17.6544C39.962 18.4749 43.5879 22.8948 43.5879 27.897C43.5879 33.2433 39.4238 37.8749 34.1482 38.2455Z" fill="#0063F5" fill-opacity="0.5"/>
</g>
</g>
<defs>
<clipPath id="clip0_148_3553">
<rect width="43.1759" height="43.1759" fill="white" transform="translate(0.412048 0.949707)"/>
</clipPath>
</defs>
</svg>
