<svg width="10" height="16" viewBox="0 0 10 16" fill="none" xmlns="http://www.w3.org/2000/svg">
<path d="M8.79514 7.62088L7.11327 6.68938L6.68408 6.08582V8.35438L8.16458 8.84938C8.32509 8.91455 8.50419 8.91725 8.66658 8.85693C8.82898 8.79662 8.9629 8.67767 9.04195 8.52352C9.121 8.36937 9.13945 8.19121 9.09366 8.02413C9.04787 7.85706 8.94174 7.71319 8.79514 7.62088Z" fill="#2C3E50"/>
<path d="M4.85319 3.49104C5.78175 3.49104 6.5345 2.73829 6.5345 1.80973C6.5345 0.881167 5.78175 0.128418 4.85319 0.128418C3.92462 0.128418 3.17188 0.881167 3.17188 1.80973C3.17188 2.73829 3.92462 3.49104 4.85319 3.49104Z" fill="#2C3E50"/>
<path d="M3.32195 10.3497C3.18509 10.2357 3.06335 10.1047 2.9597 9.95984L2.80333 11.8161L0.771576 14.6792C0.650098 14.8202 0.587447 15.0025 0.596577 15.1884C0.605708 15.3743 0.68592 15.5496 0.820631 15.678C0.955342 15.8064 1.13425 15.8782 1.32037 15.8784C1.50649 15.8787 1.68559 15.8074 1.82064 15.6793L3.86476 13.3337C4.1264 13.0336 4.32531 12.6842 4.44976 12.306L4.71751 11.4915L3.32195 10.3497Z" fill="#2C3E50"/>
<path d="M4.31777 4.0625H4.60577C5.46696 4.0625 6.16502 4.76 6.16502 5.62175V8.4005C6.16502 8.75375 6.30565 9.09237 6.5554 9.34269L7.63146 10.4187C8.01604 10.8034 8.28397 11.2889 8.40434 11.8194L9.12659 15.0009C9.15559 15.1924 9.11036 15.3878 9.00013 15.5471C8.88991 15.7064 8.72302 15.8175 8.53356 15.8579C8.3441 15.8983 8.14638 15.8648 7.9808 15.7642C7.81523 15.6637 7.69429 15.5037 7.64271 15.317L6.53459 12.2806L3.75359 10.0036C3.53401 9.82379 3.35913 9.59548 3.24269 9.33664C3.12625 9.0778 3.07143 8.79548 3.08252 8.51188L3.16521 6.37775L2.17296 7.18044L1.84165 8.85331C1.8056 9.03967 1.69769 9.20437 1.54122 9.31184C1.38476 9.4193 1.1923 9.46091 1.00542 9.42767C0.818536 9.39443 0.652229 9.28901 0.542418 9.13418C0.432607 8.97936 0.388105 8.78755 0.418525 8.60019L0.722838 6.68206C0.791733 6.24639 1.02886 5.85516 1.38321 5.5925L2.75009 4.58C3.20364 4.24387 3.75324 4.06244 4.31777 4.0625Z" fill="#2C3E50"/>
</svg>
